G75*
%MOIN*%
%OFA0B0*%
%FSLAX24Y24*%
%IPPOS*%
%LPD*%
%AMOC8*
5,1,8,0,0,1.08239X$1,22.5*
%
%ADD10C,0.0080*%
%ADD11C,0.0060*%
%ADD12C,0.0120*%
%ADD13C,0.0090*%
%ADD14C,0.0050*%
D10*
X008500Y027850D02*
X008250Y028100D01*
X008250Y028600D01*
X008500Y028850D01*
X009000Y028850D01*
X009250Y028600D01*
X009500Y028850D01*
X010000Y028850D01*
X010250Y028600D01*
X010500Y028850D01*
X011000Y028850D01*
X011250Y028600D01*
X011500Y028850D01*
X012000Y028850D01*
X012250Y028600D01*
X012500Y028850D01*
X013000Y028850D01*
X013250Y028600D01*
X013500Y028850D01*
X014000Y028850D01*
X014250Y028600D01*
X014500Y028850D01*
X015000Y028850D01*
X015250Y028600D01*
X015500Y028850D01*
X016000Y028850D01*
X016250Y028600D01*
X016250Y028100D01*
X016000Y027850D01*
X015500Y027850D01*
X015250Y028100D01*
X015000Y027850D01*
X014500Y027850D01*
X014250Y028100D01*
X014000Y027850D01*
X013500Y027850D01*
X013250Y028100D01*
X013000Y027850D01*
X012500Y027850D01*
X012250Y028100D01*
X012000Y027850D01*
X011500Y027850D01*
X011250Y028100D01*
X011000Y027850D01*
X010500Y027850D01*
X010250Y028100D01*
X010000Y027850D01*
X009500Y027850D01*
X009250Y028100D01*
X009000Y027850D01*
X008500Y027850D01*
X008540Y029090D02*
X008860Y029090D01*
X009020Y029250D01*
X008860Y029410D01*
X008540Y029410D01*
X008540Y029606D02*
X009020Y029606D01*
X009020Y029846D01*
X008940Y029926D01*
X008780Y029926D01*
X008700Y029846D01*
X008700Y029606D01*
X008700Y029766D02*
X008540Y029926D01*
X008540Y030121D02*
X008540Y030442D01*
X008540Y030637D02*
X009020Y030637D01*
X009020Y030957D01*
X008780Y030797D02*
X008780Y030637D01*
X009020Y030442D02*
X009020Y030121D01*
X008540Y030121D01*
X008780Y030121D02*
X008780Y030281D01*
X009490Y030361D02*
X009490Y030121D01*
X009970Y030121D01*
X009970Y030361D01*
X009890Y030442D01*
X009570Y030442D01*
X009490Y030361D01*
X009490Y029926D02*
X009970Y029926D01*
X009970Y029606D02*
X009490Y029926D01*
X009490Y029606D02*
X009970Y029606D01*
X009890Y029410D02*
X009970Y029330D01*
X009970Y029170D01*
X009890Y029090D01*
X009570Y029090D01*
X009490Y029170D01*
X009490Y029330D01*
X009570Y029410D01*
X009730Y029410D01*
X009730Y029250D01*
X010480Y029219D02*
X010960Y029219D01*
X010800Y029059D01*
X010480Y029059D02*
X010480Y029379D01*
X010560Y029574D02*
X010480Y029654D01*
X010480Y029815D01*
X010560Y029895D01*
X010640Y029895D01*
X010720Y029815D01*
X010720Y029734D01*
X010720Y029815D02*
X010800Y029895D01*
X010880Y029895D01*
X010960Y029815D01*
X010960Y029654D01*
X010880Y029574D01*
X011480Y029574D02*
X011800Y029895D01*
X011880Y029895D01*
X011960Y029815D01*
X011960Y029654D01*
X011880Y029574D01*
X011960Y029219D02*
X011480Y029219D01*
X011480Y029059D02*
X011480Y029379D01*
X011480Y029574D02*
X011480Y029895D01*
X011960Y029219D02*
X011800Y029059D01*
X012480Y029059D02*
X012480Y029379D01*
X012480Y029219D02*
X012960Y029219D01*
X012800Y029059D01*
X012800Y029574D02*
X012960Y029734D01*
X012480Y029734D01*
X012480Y029574D02*
X012480Y029895D01*
X013480Y029815D02*
X013480Y029654D01*
X013560Y029574D01*
X013880Y029895D01*
X013560Y029895D01*
X013480Y029815D01*
X013560Y029574D02*
X013880Y029574D01*
X013960Y029654D01*
X013960Y029815D01*
X013880Y029895D01*
X013480Y029379D02*
X013480Y029059D01*
X013480Y029219D02*
X013960Y029219D01*
X013800Y029059D01*
X014480Y029154D02*
X014480Y029315D01*
X014560Y029395D01*
X014880Y029395D01*
X014960Y029315D01*
X014960Y029154D01*
X014880Y029074D01*
X014800Y029074D01*
X014720Y029154D01*
X014720Y029395D01*
X014480Y029154D02*
X014560Y029074D01*
X015480Y029154D02*
X015560Y029074D01*
X015640Y029074D01*
X015720Y029154D01*
X015720Y029315D01*
X015640Y029395D01*
X015560Y029395D01*
X015480Y029315D01*
X015480Y029154D01*
X015720Y029154D02*
X015800Y029074D01*
X015880Y029074D01*
X015960Y029154D01*
X015960Y029315D01*
X015880Y029395D01*
X015800Y029395D01*
X015720Y029315D01*
X016980Y029074D02*
X017060Y029074D01*
X017380Y029395D01*
X017460Y029395D01*
X017460Y029074D01*
X017600Y028850D02*
X017100Y028850D01*
X016850Y028600D01*
X016850Y028100D01*
X017100Y027850D01*
X017600Y027850D01*
X017850Y028100D01*
X018100Y027850D01*
X018600Y027850D01*
X018850Y028100D01*
X019100Y027850D01*
X019600Y027850D01*
X019850Y028100D01*
X020100Y027850D01*
X020600Y027850D01*
X020850Y028100D01*
X021100Y027850D01*
X021600Y027850D01*
X021850Y028100D01*
X022100Y027850D01*
X022600Y027850D01*
X022850Y028100D01*
X023100Y027850D01*
X023600Y027850D01*
X023850Y028100D01*
X024100Y027850D01*
X024600Y027850D01*
X024850Y028100D01*
X024850Y028600D01*
X024600Y028850D01*
X024100Y028850D01*
X023850Y028600D01*
X023600Y028850D01*
X023100Y028850D01*
X022850Y028600D01*
X022600Y028850D01*
X022100Y028850D01*
X021850Y028600D01*
X021600Y028850D01*
X021100Y028850D01*
X020850Y028600D01*
X020600Y028850D01*
X020100Y028850D01*
X019850Y028600D01*
X019600Y028850D01*
X019100Y028850D01*
X018850Y028600D01*
X018600Y028850D01*
X018100Y028850D01*
X017850Y028600D01*
X017600Y028850D01*
X017980Y029154D02*
X017980Y029315D01*
X018060Y029395D01*
X018140Y029395D01*
X018220Y029315D01*
X018220Y029074D01*
X018060Y029074D01*
X017980Y029154D01*
X018220Y029074D02*
X018380Y029234D01*
X018460Y029395D01*
X018980Y029315D02*
X018980Y029154D01*
X019060Y029074D01*
X019220Y029074D02*
X019300Y029234D01*
X019300Y029315D01*
X019220Y029395D01*
X019060Y029395D01*
X018980Y029315D01*
X019220Y029074D02*
X019460Y029074D01*
X019460Y029395D01*
X019980Y029315D02*
X020460Y029315D01*
X020220Y029074D01*
X020220Y029395D01*
X020980Y029315D02*
X020980Y029154D01*
X021060Y029074D01*
X021220Y029234D02*
X021220Y029315D01*
X021140Y029395D01*
X021060Y029395D01*
X020980Y029315D01*
X021220Y029315D02*
X021300Y029395D01*
X021380Y029395D01*
X021460Y029315D01*
X021460Y029154D01*
X021380Y029074D01*
X021980Y029074D02*
X022300Y029395D01*
X022380Y029395D01*
X022460Y029315D01*
X022460Y029154D01*
X022380Y029074D01*
X021980Y029074D02*
X021980Y029395D01*
X022980Y029395D02*
X022980Y029074D01*
X022980Y029234D02*
X023460Y029234D01*
X023300Y029074D01*
X023300Y029850D02*
X023500Y030050D01*
X023300Y029850D02*
X023300Y030350D01*
X023100Y030050D02*
X023300Y029850D01*
X024100Y030150D02*
X024300Y030350D01*
X024500Y030150D01*
X024300Y030350D02*
X024300Y029850D01*
X024380Y029395D02*
X024060Y029074D01*
X023980Y029154D01*
X023980Y029315D01*
X024060Y029395D01*
X024380Y029395D01*
X024460Y029315D01*
X024460Y029154D01*
X024380Y029074D01*
X024060Y029074D01*
X025850Y028600D02*
X025850Y028100D01*
X026100Y027850D01*
X026600Y027850D01*
X026850Y028100D01*
X027100Y027850D01*
X027600Y027850D01*
X027850Y028100D01*
X028100Y027850D01*
X028600Y027850D01*
X028850Y028100D01*
X029100Y027850D01*
X029600Y027850D01*
X029850Y028100D01*
X030100Y027850D01*
X030600Y027850D01*
X030850Y028100D01*
X031100Y027850D01*
X031600Y027850D01*
X031850Y028100D01*
X032100Y027850D01*
X032600Y027850D01*
X032850Y028100D01*
X033100Y027850D01*
X033600Y027850D01*
X033850Y028100D01*
X033850Y028600D01*
X033600Y028850D01*
X033100Y028850D01*
X032850Y028600D01*
X032600Y028850D01*
X032100Y028850D01*
X031850Y028600D01*
X031600Y028850D01*
X031100Y028850D01*
X030850Y028600D01*
X030600Y028850D01*
X030100Y028850D01*
X029850Y028600D01*
X029600Y028850D01*
X029100Y028850D01*
X028850Y028600D01*
X028600Y028850D01*
X028100Y028850D01*
X027850Y028600D01*
X027600Y028850D01*
X027100Y028850D01*
X026850Y028600D01*
X026600Y028850D01*
X026100Y028850D01*
X025850Y028600D01*
X025980Y028909D02*
X025980Y029229D01*
X025980Y029069D02*
X026460Y029069D01*
X026300Y028909D01*
X026220Y029424D02*
X026220Y029745D01*
X025980Y029665D02*
X026460Y029665D01*
X026220Y029424D01*
X026980Y029504D02*
X027060Y029424D01*
X026980Y029504D02*
X026980Y029665D01*
X027060Y029745D01*
X027220Y029745D01*
X027300Y029665D01*
X027300Y029584D01*
X027220Y029424D01*
X027460Y029424D01*
X027460Y029745D01*
X027980Y029665D02*
X027980Y029504D01*
X028060Y029424D01*
X028220Y029424D01*
X028220Y029665D01*
X028140Y029745D01*
X028060Y029745D01*
X027980Y029665D01*
X028220Y029424D02*
X028380Y029584D01*
X028460Y029745D01*
X028460Y029069D02*
X027980Y029069D01*
X027980Y028909D02*
X027980Y029229D01*
X028300Y028909D02*
X028460Y029069D01*
X028980Y029069D02*
X029460Y029069D01*
X029300Y028909D01*
X028980Y028909D02*
X028980Y029229D01*
X028980Y029424D02*
X029060Y029424D01*
X029380Y029745D01*
X029460Y029745D01*
X029460Y029424D01*
X029980Y029504D02*
X029980Y029665D01*
X030060Y029745D01*
X030140Y029745D01*
X030220Y029665D01*
X030220Y029504D01*
X030300Y029424D01*
X030380Y029424D01*
X030460Y029504D01*
X030460Y029665D01*
X030380Y029745D01*
X030300Y029745D01*
X030220Y029665D01*
X030220Y029504D02*
X030140Y029424D01*
X030060Y029424D01*
X029980Y029504D01*
X029980Y029229D02*
X029980Y028909D01*
X029980Y029069D02*
X030460Y029069D01*
X030300Y028909D01*
X030980Y028909D02*
X030980Y029229D01*
X030980Y029069D02*
X031460Y029069D01*
X031300Y028909D01*
X031300Y029424D02*
X031220Y029504D01*
X031220Y029745D01*
X031060Y029745D02*
X031380Y029745D01*
X031460Y029665D01*
X031460Y029504D01*
X031380Y029424D01*
X031300Y029424D01*
X031060Y029424D02*
X030980Y029504D01*
X030980Y029665D01*
X031060Y029745D01*
X031980Y029665D02*
X031980Y029504D01*
X032060Y029424D01*
X032380Y029745D01*
X032060Y029745D01*
X031980Y029665D01*
X032060Y029424D02*
X032380Y029424D01*
X032460Y029504D01*
X032460Y029665D01*
X032380Y029745D01*
X032380Y029229D02*
X032300Y029229D01*
X031980Y028909D01*
X031980Y029229D01*
X032380Y029229D02*
X032460Y029149D01*
X032460Y028989D01*
X032380Y028909D01*
X032980Y028909D02*
X032980Y029229D01*
X032980Y029424D02*
X032980Y029745D01*
X032980Y029584D02*
X033460Y029584D01*
X033300Y029424D01*
X033300Y029229D02*
X033380Y029229D01*
X033460Y029149D01*
X033460Y028989D01*
X033380Y028909D01*
X033300Y029229D02*
X032980Y028909D01*
X034815Y029130D02*
X035136Y029130D01*
X034815Y029450D01*
X034815Y029530D01*
X034895Y029610D01*
X035056Y029610D01*
X035136Y029530D01*
X035331Y029530D02*
X035411Y029610D01*
X035571Y029610D01*
X035651Y029530D01*
X035331Y029530D02*
X035331Y029450D01*
X035651Y029130D01*
X035331Y029130D01*
X035850Y028600D02*
X036100Y028850D01*
X037600Y028850D01*
X037850Y028600D01*
X037850Y028100D01*
X037600Y027850D01*
X036100Y027850D01*
X035850Y028100D01*
X035850Y028600D01*
X035651Y030130D02*
X035331Y030450D01*
X035331Y030530D01*
X035411Y030610D01*
X035571Y030610D01*
X035651Y030530D01*
X035651Y030130D02*
X035331Y030130D01*
X035136Y030370D02*
X034815Y030370D01*
X034895Y030130D02*
X034895Y030610D01*
X035136Y030370D01*
X035056Y031130D02*
X034895Y031130D01*
X034815Y031210D01*
X034815Y031290D01*
X034895Y031370D01*
X035136Y031370D01*
X035136Y031210D01*
X035056Y031130D01*
X035136Y031370D02*
X034976Y031530D01*
X034815Y031610D01*
X034895Y032130D02*
X034815Y032210D01*
X034815Y032290D01*
X034895Y032370D01*
X035056Y032370D01*
X035136Y032450D01*
X035136Y032530D01*
X035056Y032610D01*
X034895Y032610D01*
X034815Y032530D01*
X034815Y032450D01*
X034895Y032370D01*
X035056Y032370D02*
X035136Y032290D01*
X035136Y032210D01*
X035056Y032130D01*
X034895Y032130D01*
X035331Y032130D02*
X035651Y032130D01*
X035331Y032450D01*
X035331Y032530D01*
X035411Y032610D01*
X035571Y032610D01*
X035651Y032530D01*
X035571Y033130D02*
X035651Y033210D01*
X035571Y033130D02*
X035411Y033130D01*
X035331Y033210D01*
X035331Y033290D01*
X035411Y033370D01*
X035491Y033370D01*
X035411Y033370D02*
X035331Y033450D01*
X035331Y033530D01*
X035411Y033610D01*
X035571Y033610D01*
X035651Y033530D01*
X035136Y033530D02*
X035136Y033210D01*
X034815Y033530D01*
X034815Y033210D01*
X034895Y033130D01*
X035056Y033130D01*
X035136Y033210D01*
X035136Y033530D02*
X035056Y033610D01*
X034895Y033610D01*
X034815Y033530D01*
X034815Y034130D02*
X035136Y034130D01*
X034815Y034450D01*
X034815Y034530D01*
X034895Y034610D01*
X035056Y034610D01*
X035136Y034530D01*
X035331Y034530D02*
X035411Y034610D01*
X035571Y034610D01*
X035651Y034530D01*
X035491Y034370D02*
X035411Y034370D01*
X035331Y034290D01*
X035331Y034210D01*
X035411Y034130D01*
X035571Y034130D01*
X035651Y034210D01*
X035411Y034370D02*
X035331Y034450D01*
X035331Y034530D01*
X035411Y035130D02*
X035571Y035130D01*
X035651Y035210D01*
X035491Y035370D02*
X035411Y035370D01*
X035331Y035290D01*
X035331Y035210D01*
X035411Y035130D01*
X035411Y035370D02*
X035331Y035450D01*
X035331Y035530D01*
X035411Y035610D01*
X035571Y035610D01*
X035651Y035530D01*
X035136Y035370D02*
X034815Y035370D01*
X034895Y035130D02*
X034895Y035610D01*
X035136Y035370D01*
X035056Y036130D02*
X034895Y036130D01*
X034815Y036210D01*
X034815Y036290D01*
X034895Y036370D01*
X035136Y036370D01*
X035136Y036210D01*
X035056Y036130D01*
X035136Y036370D02*
X034976Y036530D01*
X034815Y036610D01*
X034895Y037130D02*
X034815Y037210D01*
X034815Y037290D01*
X034895Y037370D01*
X035056Y037370D01*
X035136Y037450D01*
X035136Y037530D01*
X035056Y037610D01*
X034895Y037610D01*
X034815Y037530D01*
X034815Y037450D01*
X034895Y037370D01*
X035056Y037370D02*
X035136Y037290D01*
X035136Y037210D01*
X035056Y037130D01*
X034895Y037130D01*
X035331Y037210D02*
X035331Y037290D01*
X035411Y037370D01*
X035491Y037370D01*
X035411Y037370D02*
X035331Y037450D01*
X035331Y037530D01*
X035411Y037610D01*
X035571Y037610D01*
X035651Y037530D01*
X035651Y037210D02*
X035571Y037130D01*
X035411Y037130D01*
X035331Y037210D01*
X035411Y036610D02*
X035331Y036530D01*
X035331Y036450D01*
X035411Y036370D01*
X035331Y036290D01*
X035331Y036210D01*
X035411Y036130D01*
X035571Y036130D01*
X035651Y036210D01*
X035491Y036370D02*
X035411Y036370D01*
X035411Y036610D02*
X035571Y036610D01*
X035651Y036530D01*
X035411Y038130D02*
X035411Y038610D01*
X035651Y038370D01*
X035331Y038370D01*
X035136Y038210D02*
X035136Y038530D01*
X035056Y038610D01*
X034895Y038610D01*
X034815Y038530D01*
X035136Y038210D01*
X035056Y038130D01*
X034895Y038130D01*
X034815Y038210D01*
X034815Y038530D01*
X034815Y039130D02*
X035136Y039130D01*
X034815Y039450D01*
X034815Y039530D01*
X034895Y039610D01*
X035056Y039610D01*
X035136Y039530D01*
X035331Y039370D02*
X035651Y039370D01*
X035411Y039610D01*
X035411Y039130D01*
X035411Y040130D02*
X035411Y040610D01*
X035651Y040370D01*
X035331Y040370D01*
X035136Y040370D02*
X034895Y040610D01*
X034895Y040130D01*
X034815Y040370D02*
X035136Y040370D01*
X035056Y041130D02*
X034895Y041130D01*
X034815Y041210D01*
X034815Y041290D01*
X034895Y041370D01*
X035136Y041370D01*
X035136Y041210D01*
X035056Y041130D01*
X035136Y041370D02*
X034976Y041530D01*
X034815Y041610D01*
X034895Y042130D02*
X034815Y042210D01*
X034815Y042290D01*
X034895Y042370D01*
X035056Y042370D01*
X035136Y042450D01*
X035136Y042530D01*
X035056Y042610D01*
X034895Y042610D01*
X034815Y042530D01*
X034815Y042450D01*
X034895Y042370D01*
X035056Y042370D02*
X035136Y042290D01*
X035136Y042210D01*
X035056Y042130D01*
X034895Y042130D01*
X035331Y042370D02*
X035651Y042370D01*
X035411Y042610D01*
X035411Y042130D01*
X035411Y041610D02*
X035651Y041370D01*
X035331Y041370D01*
X035411Y041130D02*
X035411Y041610D01*
X035411Y043130D02*
X035571Y043130D01*
X035651Y043210D01*
X035651Y043370D02*
X035491Y043450D01*
X035411Y043450D01*
X035331Y043370D01*
X035331Y043210D01*
X035411Y043130D01*
X035136Y043210D02*
X035136Y043530D01*
X035056Y043610D01*
X034895Y043610D01*
X034815Y043530D01*
X035136Y043210D01*
X035056Y043130D01*
X034895Y043130D01*
X034815Y043210D01*
X034815Y043530D01*
X034815Y044130D02*
X035136Y044130D01*
X034815Y044450D01*
X034815Y044530D01*
X034895Y044610D01*
X035056Y044610D01*
X035136Y044530D01*
X035331Y044610D02*
X035651Y044610D01*
X035651Y044370D01*
X035491Y044450D01*
X035411Y044450D01*
X035331Y044370D01*
X035331Y044210D01*
X035411Y044130D01*
X035571Y044130D01*
X035651Y044210D01*
X035651Y043610D02*
X035651Y043370D01*
X035651Y043610D02*
X035331Y043610D01*
X036100Y044850D02*
X037600Y044850D01*
X037850Y045100D01*
X037850Y045600D01*
X037600Y045850D01*
X036100Y045850D01*
X035850Y045600D01*
X035850Y045100D01*
X036100Y044850D01*
X035560Y045193D02*
X035400Y045353D01*
X035080Y045353D01*
X035080Y045549D02*
X035080Y045869D01*
X035080Y045709D02*
X035560Y045709D01*
X035400Y045549D01*
X035320Y045353D02*
X035320Y045033D01*
X035400Y045033D02*
X035560Y045193D01*
X035400Y045033D02*
X035080Y045033D01*
X034610Y045193D02*
X034450Y045353D01*
X034130Y045353D01*
X034130Y045549D02*
X034130Y045869D01*
X034130Y045709D02*
X034610Y045709D01*
X034450Y045549D01*
X034370Y045353D02*
X034370Y045033D01*
X034450Y045033D02*
X034130Y045033D01*
X034450Y045033D02*
X034610Y045193D01*
X034370Y046064D02*
X034370Y046385D01*
X034130Y046305D02*
X034610Y046305D01*
X034370Y046064D01*
X033610Y046144D02*
X033610Y046305D01*
X033530Y046385D01*
X033450Y046385D01*
X033370Y046305D01*
X033290Y046385D01*
X033210Y046385D01*
X033130Y046305D01*
X033130Y046144D01*
X033210Y046064D01*
X033130Y045869D02*
X033130Y045549D01*
X033130Y045709D02*
X033610Y045709D01*
X033450Y045549D01*
X033450Y045353D02*
X033130Y045353D01*
X033370Y045353D02*
X033370Y045033D01*
X033450Y045033D02*
X033610Y045193D01*
X033450Y045353D01*
X033450Y045033D02*
X033130Y045033D01*
X032610Y045193D02*
X032450Y045353D01*
X032130Y045353D01*
X032130Y045549D02*
X032130Y045869D01*
X032130Y045709D02*
X032610Y045709D01*
X032450Y045549D01*
X032370Y045353D02*
X032370Y045033D01*
X032450Y045033D02*
X032610Y045193D01*
X032450Y045033D02*
X032130Y045033D01*
X031610Y045193D02*
X031450Y045353D01*
X031130Y045353D01*
X031130Y045549D02*
X031130Y045869D01*
X031130Y045709D02*
X031610Y045709D01*
X031450Y045549D01*
X031370Y045353D02*
X031370Y045033D01*
X031450Y045033D02*
X031610Y045193D01*
X031450Y045033D02*
X031130Y045033D01*
X030610Y045193D02*
X030450Y045353D01*
X030130Y045353D01*
X030130Y045549D02*
X030130Y045869D01*
X030130Y045709D02*
X030610Y045709D01*
X030450Y045549D01*
X030370Y045353D02*
X030370Y045033D01*
X030450Y045033D02*
X030610Y045193D01*
X030450Y045033D02*
X030130Y045033D01*
X029610Y045709D02*
X029450Y045869D01*
X029130Y045869D01*
X029210Y046064D02*
X029130Y046144D01*
X029130Y046305D01*
X029210Y046385D01*
X029530Y046385D01*
X029610Y046305D01*
X029610Y046144D01*
X029530Y046064D01*
X029450Y046064D01*
X029370Y046144D01*
X029370Y046385D01*
X029370Y045869D02*
X029370Y045549D01*
X029450Y045549D02*
X029610Y045709D01*
X029450Y045549D02*
X029130Y045549D01*
X028610Y045709D02*
X028450Y045869D01*
X028130Y045869D01*
X028210Y046064D02*
X028290Y046064D01*
X028370Y046144D01*
X028370Y046305D01*
X028290Y046385D01*
X028210Y046385D01*
X028130Y046305D01*
X028130Y046144D01*
X028210Y046064D01*
X028370Y046144D02*
X028450Y046064D01*
X028530Y046064D01*
X028610Y046144D01*
X028610Y046305D01*
X028530Y046385D01*
X028450Y046385D01*
X028370Y046305D01*
X028370Y045869D02*
X028370Y045549D01*
X028450Y045549D02*
X028610Y045709D01*
X028450Y045549D02*
X028130Y045549D01*
X028100Y046850D02*
X027850Y047100D01*
X027850Y047600D01*
X028100Y047850D01*
X028600Y047850D01*
X028850Y047600D01*
X029100Y047850D01*
X029600Y047850D01*
X029850Y047600D01*
X030100Y047850D01*
X030600Y047850D01*
X030850Y047600D01*
X031100Y047850D01*
X031600Y047850D01*
X031850Y047600D01*
X032100Y047850D01*
X032600Y047850D01*
X032850Y047600D01*
X033100Y047850D01*
X033600Y047850D01*
X033850Y047600D01*
X034100Y047850D01*
X034600Y047850D01*
X034850Y047600D01*
X035100Y047850D01*
X035600Y047850D01*
X035850Y047600D01*
X035850Y047100D01*
X035600Y046850D01*
X035100Y046850D01*
X034850Y047100D01*
X034600Y046850D01*
X034100Y046850D01*
X033850Y047100D01*
X033600Y046850D01*
X033100Y046850D01*
X032850Y047100D01*
X032600Y046850D01*
X032100Y046850D01*
X031850Y047100D01*
X031600Y046850D01*
X031100Y046850D01*
X030850Y047100D01*
X030600Y046850D01*
X030100Y046850D01*
X029850Y047100D01*
X029600Y046850D01*
X029100Y046850D01*
X028850Y047100D01*
X028600Y046850D01*
X028100Y046850D01*
X026850Y047100D02*
X026850Y047600D01*
X026600Y047850D01*
X026100Y047850D01*
X025850Y047600D01*
X025600Y047850D01*
X025100Y047850D01*
X024850Y047600D01*
X024600Y047850D01*
X024100Y047850D01*
X023850Y047600D01*
X023600Y047850D01*
X023100Y047850D01*
X022850Y047600D01*
X022600Y047850D01*
X022100Y047850D01*
X021850Y047600D01*
X021600Y047850D01*
X021100Y047850D01*
X020850Y047600D01*
X020600Y047850D01*
X020100Y047850D01*
X019850Y047600D01*
X019600Y047850D01*
X019100Y047850D01*
X018850Y047600D01*
X018850Y047100D01*
X019100Y046850D01*
X019600Y046850D01*
X019850Y047100D01*
X020100Y046850D01*
X020600Y046850D01*
X020850Y047100D01*
X021100Y046850D01*
X021600Y046850D01*
X021850Y047100D01*
X022100Y046850D01*
X022600Y046850D01*
X022850Y047100D01*
X023100Y046850D01*
X023600Y046850D01*
X023850Y047100D01*
X024100Y046850D01*
X024600Y046850D01*
X024850Y047100D01*
X025100Y046850D01*
X025600Y046850D01*
X025850Y047100D01*
X026100Y046850D01*
X026600Y046850D01*
X026850Y047100D01*
X026610Y046385D02*
X026530Y046385D01*
X026210Y046064D01*
X026130Y046064D01*
X026130Y045869D02*
X026450Y045869D01*
X026610Y045709D01*
X026450Y045549D01*
X026130Y045549D01*
X026370Y045549D02*
X026370Y045869D01*
X026610Y046064D02*
X026610Y046385D01*
X025560Y046385D02*
X025480Y046224D01*
X025320Y046064D01*
X025320Y046305D01*
X025240Y046385D01*
X025160Y046385D01*
X025080Y046305D01*
X025080Y046144D01*
X025160Y046064D01*
X025320Y046064D01*
X024560Y046064D02*
X024320Y046064D01*
X024400Y046224D01*
X024400Y046305D01*
X024320Y046385D01*
X024160Y046385D01*
X024080Y046305D01*
X024080Y046144D01*
X024160Y046064D01*
X024080Y045869D02*
X024400Y045869D01*
X024560Y045709D01*
X024400Y045549D01*
X024080Y045549D01*
X024320Y045549D02*
X024320Y045869D01*
X024560Y046064D02*
X024560Y046385D01*
X023610Y046305D02*
X023370Y046064D01*
X023370Y046385D01*
X023130Y046305D02*
X023610Y046305D01*
X023450Y045869D02*
X023130Y045869D01*
X023370Y045869D02*
X023370Y045549D01*
X023450Y045549D02*
X023610Y045709D01*
X023450Y045869D01*
X023450Y045549D02*
X023130Y045549D01*
X022610Y045709D02*
X022450Y045869D01*
X022130Y045869D01*
X022210Y046064D02*
X022130Y046144D01*
X022130Y046305D01*
X022210Y046385D01*
X022290Y046385D01*
X022370Y046305D01*
X022370Y046224D01*
X022370Y046305D02*
X022450Y046385D01*
X022530Y046385D01*
X022610Y046305D01*
X022610Y046144D01*
X022530Y046064D01*
X022370Y045869D02*
X022370Y045549D01*
X022450Y045549D02*
X022610Y045709D01*
X022450Y045549D02*
X022130Y045549D01*
X021610Y045709D02*
X021450Y045869D01*
X021130Y045869D01*
X021130Y046064D02*
X021450Y046385D01*
X021530Y046385D01*
X021610Y046305D01*
X021610Y046144D01*
X021530Y046064D01*
X021370Y045869D02*
X021370Y045549D01*
X021450Y045549D02*
X021130Y045549D01*
X021450Y045549D02*
X021610Y045709D01*
X021130Y046064D02*
X021130Y046385D01*
X020510Y046224D02*
X020030Y046224D01*
X020030Y046064D02*
X020030Y046385D01*
X019610Y046305D02*
X019530Y046385D01*
X019210Y046064D01*
X019130Y046144D01*
X019130Y046305D01*
X019210Y046385D01*
X019530Y046385D01*
X019610Y046305D02*
X019610Y046144D01*
X019530Y046064D01*
X019210Y046064D01*
X019130Y045869D02*
X019450Y045869D01*
X019610Y045709D01*
X019450Y045549D01*
X019130Y045549D01*
X019370Y045549D02*
X019370Y045869D01*
X020030Y045869D02*
X020350Y045869D01*
X020510Y045709D01*
X020350Y045549D01*
X020030Y045549D01*
X020270Y045549D02*
X020270Y045869D01*
X020350Y046064D02*
X020510Y046224D01*
X017850Y047100D02*
X017850Y047600D01*
X017600Y047850D01*
X017100Y047850D01*
X016850Y047600D01*
X016600Y047850D01*
X016100Y047850D01*
X015850Y047600D01*
X015600Y047850D01*
X015100Y047850D01*
X014850Y047600D01*
X014600Y047850D01*
X014100Y047850D01*
X013850Y047600D01*
X013600Y047850D01*
X013100Y047850D01*
X012850Y047600D01*
X012600Y047850D01*
X012100Y047850D01*
X011850Y047600D01*
X011850Y047100D01*
X012100Y046850D01*
X012600Y046850D01*
X012850Y047100D01*
X013100Y046850D01*
X013600Y046850D01*
X013850Y047100D01*
X014100Y046850D01*
X014600Y046850D01*
X014850Y047100D01*
X015100Y046850D01*
X015600Y046850D01*
X015850Y047100D01*
X016100Y046850D01*
X016600Y046850D01*
X016850Y047100D01*
X017100Y046850D01*
X017600Y046850D01*
X017850Y047100D01*
X030130Y046305D02*
X030130Y046144D01*
X030210Y046064D01*
X030530Y046385D01*
X030210Y046385D01*
X030130Y046305D01*
X030210Y046064D02*
X030530Y046064D01*
X030610Y046144D01*
X030610Y046305D01*
X030530Y046385D01*
X031130Y046385D02*
X031130Y046064D01*
X031130Y046224D02*
X031610Y046224D01*
X031450Y046064D01*
X032130Y046064D02*
X032450Y046385D01*
X032530Y046385D01*
X032610Y046305D01*
X032610Y046144D01*
X032530Y046064D01*
X032130Y046064D02*
X032130Y046385D01*
X033370Y046305D02*
X033370Y046224D01*
X033530Y046064D02*
X033610Y046144D01*
X035080Y046144D02*
X035160Y046064D01*
X035080Y046144D02*
X035080Y046305D01*
X035160Y046385D01*
X035320Y046385D01*
X035400Y046305D01*
X035400Y046224D01*
X035320Y046064D01*
X035560Y046064D01*
X035560Y046385D01*
X038255Y044520D02*
X038255Y044440D01*
X038335Y044360D01*
X038255Y044280D01*
X038255Y044200D01*
X038335Y044120D01*
X038496Y044120D01*
X038576Y044200D01*
X038771Y044200D02*
X038851Y044120D01*
X039011Y044120D01*
X039091Y044200D01*
X039091Y044360D02*
X038931Y044440D01*
X038851Y044440D01*
X038771Y044360D01*
X038771Y044200D01*
X039091Y044360D02*
X039091Y044600D01*
X038771Y044600D01*
X038576Y044520D02*
X038496Y044600D01*
X038335Y044600D01*
X038255Y044520D01*
X038335Y044360D02*
X038416Y044360D01*
X038416Y043600D02*
X038416Y043120D01*
X038576Y043120D02*
X038255Y043120D01*
X038576Y043440D02*
X038416Y043600D01*
X038771Y043600D02*
X039091Y043600D01*
X039091Y043360D01*
X038931Y043440D01*
X038851Y043440D01*
X038771Y043360D01*
X038771Y043200D01*
X038851Y043120D01*
X039011Y043120D01*
X039091Y043200D01*
X038851Y042600D02*
X039091Y042360D01*
X038771Y042360D01*
X038576Y042440D02*
X038496Y042360D01*
X038255Y042360D01*
X038255Y042200D02*
X038255Y042520D01*
X038335Y042600D01*
X038496Y042600D01*
X038576Y042520D01*
X038576Y042440D01*
X038576Y042200D02*
X038496Y042120D01*
X038335Y042120D01*
X038255Y042200D01*
X038255Y041600D02*
X038255Y041520D01*
X038576Y041200D01*
X038576Y041120D01*
X038851Y041120D02*
X038851Y041600D01*
X039091Y041360D01*
X038771Y041360D01*
X038576Y041600D02*
X038255Y041600D01*
X038851Y042120D02*
X038851Y042600D01*
X038851Y040600D02*
X039091Y040360D01*
X038771Y040360D01*
X038576Y040360D02*
X038576Y040600D01*
X038255Y040600D01*
X038335Y040440D02*
X038255Y040360D01*
X038255Y040200D01*
X038335Y040120D01*
X038496Y040120D01*
X038576Y040200D01*
X038576Y040360D02*
X038416Y040440D01*
X038335Y040440D01*
X038851Y040600D02*
X038851Y040120D01*
X038851Y039600D02*
X039091Y039360D01*
X038771Y039360D01*
X038576Y039200D02*
X038496Y039120D01*
X038335Y039120D01*
X038255Y039200D01*
X038255Y039280D01*
X038335Y039360D01*
X038416Y039360D01*
X038335Y039360D02*
X038255Y039440D01*
X038255Y039520D01*
X038335Y039600D01*
X038496Y039600D01*
X038576Y039520D01*
X038851Y039600D02*
X038851Y039120D01*
X038851Y038600D02*
X039091Y038360D01*
X038771Y038360D01*
X038576Y038440D02*
X038416Y038600D01*
X038416Y038120D01*
X038576Y038120D02*
X038255Y038120D01*
X038335Y037600D02*
X038496Y037600D01*
X038576Y037520D01*
X038576Y037440D01*
X038496Y037360D01*
X038255Y037360D01*
X038255Y037200D02*
X038255Y037520D01*
X038335Y037600D01*
X038255Y037200D02*
X038335Y037120D01*
X038496Y037120D01*
X038576Y037200D01*
X038771Y037200D02*
X038771Y037280D01*
X038851Y037360D01*
X038931Y037360D01*
X038851Y037360D02*
X038771Y037440D01*
X038771Y037520D01*
X038851Y037600D01*
X039011Y037600D01*
X039091Y037520D01*
X039091Y037200D02*
X039011Y037120D01*
X038851Y037120D01*
X038771Y037200D01*
X038851Y036600D02*
X038771Y036520D01*
X038771Y036440D01*
X038851Y036360D01*
X038771Y036280D01*
X038771Y036200D01*
X038851Y036120D01*
X039011Y036120D01*
X039091Y036200D01*
X038931Y036360D02*
X038851Y036360D01*
X038851Y036600D02*
X039011Y036600D01*
X039091Y036520D01*
X038576Y036600D02*
X038255Y036600D01*
X038255Y036520D01*
X038576Y036200D01*
X038576Y036120D01*
X038576Y035600D02*
X038576Y035360D01*
X038416Y035440D01*
X038335Y035440D01*
X038255Y035360D01*
X038255Y035200D01*
X038335Y035120D01*
X038496Y035120D01*
X038576Y035200D01*
X038771Y035200D02*
X038851Y035120D01*
X039011Y035120D01*
X039091Y035200D01*
X038931Y035360D02*
X038851Y035360D01*
X038771Y035280D01*
X038771Y035200D01*
X038851Y035360D02*
X038771Y035440D01*
X038771Y035520D01*
X038851Y035600D01*
X039011Y035600D01*
X039091Y035520D01*
X039011Y034600D02*
X038851Y034600D01*
X038771Y034520D01*
X038771Y034440D01*
X038851Y034360D01*
X038771Y034280D01*
X038771Y034200D01*
X038851Y034120D01*
X039011Y034120D01*
X039091Y034200D01*
X038931Y034360D02*
X038851Y034360D01*
X039091Y034520D02*
X039011Y034600D01*
X038576Y034520D02*
X038496Y034600D01*
X038335Y034600D01*
X038255Y034520D01*
X038255Y034440D01*
X038335Y034360D01*
X038255Y034280D01*
X038255Y034200D01*
X038335Y034120D01*
X038496Y034120D01*
X038576Y034200D01*
X038416Y034360D02*
X038335Y034360D01*
X038416Y033600D02*
X038416Y033120D01*
X038576Y033120D02*
X038255Y033120D01*
X038576Y033440D02*
X038416Y033600D01*
X038771Y033520D02*
X038771Y033440D01*
X038851Y033360D01*
X038771Y033280D01*
X038771Y033200D01*
X038851Y033120D01*
X039011Y033120D01*
X039091Y033200D01*
X038931Y033360D02*
X038851Y033360D01*
X038771Y033520D02*
X038851Y033600D01*
X039011Y033600D01*
X039091Y033520D01*
X038576Y035600D02*
X038255Y035600D01*
X038851Y038120D02*
X038851Y038600D01*
X035571Y031610D02*
X035651Y031530D01*
X035571Y031610D02*
X035411Y031610D01*
X035331Y031530D01*
X035331Y031450D01*
X035651Y031130D01*
X035331Y031130D01*
X027460Y029069D02*
X027300Y028909D01*
X027460Y029069D02*
X026980Y029069D01*
X026980Y028909D02*
X026980Y029229D01*
X008780Y029090D02*
X008780Y029410D01*
D11*
X012180Y044728D02*
X012520Y044728D01*
X012520Y044899D01*
X012464Y044955D01*
X012350Y044955D01*
X012293Y044899D01*
X012293Y044728D01*
X012293Y044842D02*
X012180Y044955D01*
X012180Y045097D02*
X012180Y045324D01*
X012237Y045465D02*
X012180Y045522D01*
X012180Y045635D01*
X012237Y045692D01*
X012293Y045692D01*
X012350Y045635D01*
X012350Y045522D01*
X012407Y045465D01*
X012464Y045465D01*
X012520Y045522D01*
X012520Y045635D01*
X012464Y045692D01*
X012520Y045833D02*
X012180Y045833D01*
X012180Y046060D01*
X012350Y045947D02*
X012350Y045833D01*
X012520Y045833D02*
X012520Y046060D01*
X012520Y046202D02*
X012520Y046429D01*
X012520Y046315D02*
X012180Y046315D01*
X013180Y046315D02*
X013293Y046429D01*
X013520Y046429D01*
X013520Y046202D02*
X013293Y046202D01*
X013180Y046315D01*
X013237Y046060D02*
X013180Y046004D01*
X013180Y045890D01*
X013237Y045833D01*
X013237Y045706D02*
X013180Y045706D01*
X013180Y045649D01*
X013237Y045649D01*
X013237Y045706D01*
X013237Y045508D02*
X013180Y045451D01*
X013180Y045338D01*
X013237Y045281D01*
X013350Y045394D02*
X013350Y045451D01*
X013293Y045508D01*
X013237Y045508D01*
X013350Y045451D02*
X013407Y045508D01*
X013464Y045508D01*
X013520Y045451D01*
X013520Y045338D01*
X013464Y045281D01*
X013464Y045833D02*
X013520Y045890D01*
X013520Y046004D01*
X013464Y046060D01*
X013407Y046060D01*
X013350Y046004D01*
X013293Y046060D01*
X013237Y046060D01*
X013350Y046004D02*
X013350Y045947D01*
X014180Y046004D02*
X014180Y045890D01*
X014237Y045833D01*
X014350Y045833D02*
X014407Y045947D01*
X014407Y046004D01*
X014350Y046060D01*
X014237Y046060D01*
X014180Y046004D01*
X014293Y046202D02*
X014180Y046315D01*
X014293Y046429D01*
X014520Y046429D01*
X014520Y046202D02*
X014293Y046202D01*
X014520Y046060D02*
X014520Y045833D01*
X014350Y045833D01*
X015180Y045833D02*
X015520Y045833D01*
X015180Y046060D01*
X015520Y046060D01*
X015520Y046202D02*
X015520Y046372D01*
X015464Y046429D01*
X015237Y046429D01*
X015180Y046372D01*
X015180Y046202D01*
X015520Y046202D01*
X015464Y045692D02*
X015520Y045635D01*
X015520Y045522D01*
X015464Y045465D01*
X015237Y045465D01*
X015180Y045522D01*
X015180Y045635D01*
X015237Y045692D01*
X015350Y045692D01*
X015350Y045578D01*
X016180Y045522D02*
X016237Y045465D01*
X016464Y045465D01*
X016520Y045522D01*
X016520Y045635D01*
X016464Y045692D01*
X016350Y045692D02*
X016350Y045578D01*
X016350Y045692D02*
X016237Y045692D01*
X016180Y045635D01*
X016180Y045522D01*
X016180Y045833D02*
X016520Y045833D01*
X016180Y046060D01*
X016520Y046060D01*
X016520Y046202D02*
X016520Y046372D01*
X016464Y046429D01*
X016237Y046429D01*
X016180Y046372D01*
X016180Y046202D01*
X016520Y046202D01*
X017180Y046202D02*
X017407Y046202D01*
X017407Y046372D01*
X017350Y046429D01*
X017180Y046429D01*
X017180Y046070D02*
X017180Y045956D01*
X017180Y046013D02*
X017407Y046013D01*
X017407Y045956D01*
X017520Y046013D02*
X017577Y046013D01*
X017520Y045815D02*
X017293Y045815D01*
X017180Y045701D01*
X017293Y045588D01*
X017520Y045588D01*
X012520Y045324D02*
X012520Y045097D01*
X012180Y045097D01*
X012350Y045097D02*
X012350Y045210D01*
X023187Y031439D02*
X023130Y031382D01*
X023130Y031268D01*
X023187Y031212D01*
X023414Y031439D01*
X023187Y031439D01*
X023414Y031439D02*
X023470Y031382D01*
X023470Y031268D01*
X023414Y031212D01*
X023187Y031212D01*
X023130Y031070D02*
X023470Y030843D01*
X023470Y030702D02*
X023470Y030475D01*
X023470Y030588D02*
X023130Y030588D01*
X023130Y030843D02*
X023470Y031070D01*
X024130Y031070D02*
X024470Y030843D01*
X024414Y030702D02*
X024300Y030702D01*
X024243Y030645D01*
X024243Y030475D01*
X024130Y030475D02*
X024470Y030475D01*
X024470Y030645D01*
X024414Y030702D01*
X024243Y030588D02*
X024130Y030702D01*
X024130Y030843D02*
X024470Y031070D01*
X024414Y031212D02*
X024470Y031268D01*
X024470Y031382D01*
X024414Y031439D01*
X024187Y031212D01*
X024130Y031268D01*
X024130Y031382D01*
X024187Y031439D01*
X024414Y031439D01*
X024414Y031212D02*
X024187Y031212D01*
X026130Y031268D02*
X026187Y031212D01*
X026130Y031268D02*
X026130Y031382D01*
X026187Y031439D01*
X026243Y031439D01*
X026300Y031382D01*
X026300Y031325D01*
X026300Y031382D02*
X026357Y031439D01*
X026414Y031439D01*
X026470Y031382D01*
X026470Y031268D01*
X026414Y031212D01*
X026470Y031070D02*
X026130Y030843D01*
X026130Y031070D02*
X026470Y030843D01*
X026470Y030702D02*
X026470Y030475D01*
X026470Y030588D02*
X026130Y030588D01*
X027130Y030475D02*
X027470Y030475D01*
X027470Y030645D01*
X027414Y030702D01*
X027300Y030702D01*
X027243Y030645D01*
X027243Y030475D01*
X027243Y030588D02*
X027130Y030702D01*
X027130Y030843D02*
X027470Y031070D01*
X027414Y031212D02*
X027470Y031268D01*
X027470Y031382D01*
X027414Y031439D01*
X027357Y031439D01*
X027300Y031382D01*
X027243Y031439D01*
X027187Y031439D01*
X027130Y031382D01*
X027130Y031268D01*
X027187Y031212D01*
X027130Y031070D02*
X027470Y030843D01*
X027300Y031325D02*
X027300Y031382D01*
X028130Y031439D02*
X028130Y031212D01*
X028357Y031439D01*
X028414Y031439D01*
X028470Y031382D01*
X028470Y031268D01*
X028414Y031212D01*
X028470Y031070D02*
X028130Y030843D01*
X028130Y031070D02*
X028470Y030843D01*
X028470Y030702D02*
X028470Y030475D01*
X028470Y030588D02*
X028130Y030588D01*
X029130Y030475D02*
X029470Y030475D01*
X029470Y030645D01*
X029414Y030702D01*
X029300Y030702D01*
X029243Y030645D01*
X029243Y030475D01*
X029243Y030588D02*
X029130Y030702D01*
X029130Y030843D02*
X029470Y031070D01*
X029414Y031212D02*
X029470Y031268D01*
X029470Y031382D01*
X029414Y031439D01*
X029357Y031439D01*
X029130Y031212D01*
X029130Y031439D01*
X029130Y031070D02*
X029470Y030843D01*
X030130Y030843D02*
X030470Y031070D01*
X030357Y031212D02*
X030470Y031325D01*
X030130Y031325D01*
X030130Y031212D02*
X030130Y031439D01*
X030130Y031070D02*
X030470Y030843D01*
X030470Y030702D02*
X030470Y030475D01*
X030470Y030588D02*
X030130Y030588D01*
X031130Y030475D02*
X031470Y030475D01*
X031470Y030645D01*
X031414Y030702D01*
X031300Y030702D01*
X031243Y030645D01*
X031243Y030475D01*
X031243Y030588D02*
X031130Y030702D01*
X031130Y030843D02*
X031470Y031070D01*
X031357Y031212D02*
X031470Y031325D01*
X031130Y031325D01*
X031130Y031212D02*
X031130Y031439D01*
X031130Y031070D02*
X031470Y030843D01*
X032130Y030843D02*
X032130Y031014D01*
X032187Y031070D01*
X032414Y031070D01*
X032470Y031014D01*
X032470Y030843D01*
X032130Y030843D01*
X032187Y030702D02*
X032130Y030645D01*
X032130Y030532D01*
X032187Y030475D01*
X032300Y030532D02*
X032300Y030645D01*
X032243Y030702D01*
X032187Y030702D01*
X032300Y030532D02*
X032357Y030475D01*
X032414Y030475D01*
X032470Y030532D01*
X032470Y030645D01*
X032414Y030702D01*
X032357Y031212D02*
X032470Y031325D01*
X032357Y031439D01*
X032130Y031439D01*
X032300Y031439D02*
X032300Y031212D01*
X032357Y031212D02*
X032130Y031212D01*
X033130Y031212D02*
X033130Y031439D01*
X033130Y031212D02*
X033470Y031212D01*
X033414Y031070D02*
X033470Y031014D01*
X033470Y030900D01*
X033414Y030843D01*
X033187Y030843D01*
X033130Y030900D01*
X033130Y031014D01*
X033187Y031070D01*
X033187Y030702D02*
X033130Y030645D01*
X033130Y030532D01*
X033187Y030475D01*
X033300Y030532D02*
X033300Y030645D01*
X033243Y030702D01*
X033187Y030702D01*
X033300Y030532D02*
X033357Y030475D01*
X033414Y030475D01*
X033470Y030532D01*
X033470Y030645D01*
X033414Y030702D01*
X035850Y030600D02*
X035850Y030100D01*
X036100Y029850D01*
X037600Y029850D01*
X037850Y030100D01*
X037850Y030600D01*
X037600Y030850D01*
X036100Y030850D01*
X035850Y030600D01*
X036100Y030850D02*
X035850Y031100D01*
X035850Y031600D01*
X036100Y031850D01*
X037600Y031850D01*
X037850Y031600D01*
X037850Y031100D01*
X037600Y030850D01*
X037600Y029850D02*
X037850Y029600D01*
X037850Y029100D01*
X037600Y028850D01*
X036100Y028850D02*
X035850Y029100D01*
X035850Y029600D01*
X036100Y029850D01*
X036100Y031850D02*
X035850Y032100D01*
X035850Y032600D01*
X036100Y032850D01*
X037600Y032850D01*
X037850Y032600D01*
X037850Y032100D01*
X037600Y031850D01*
X037600Y032850D02*
X037850Y033100D01*
X037850Y033600D01*
X037600Y033850D01*
X036100Y033850D01*
X035850Y033600D01*
X035850Y033100D01*
X036100Y032850D01*
X036100Y033850D02*
X035850Y034100D01*
X035850Y034600D01*
X036100Y034850D01*
X037600Y034850D01*
X037850Y034600D01*
X037850Y034100D01*
X037600Y033850D01*
X037600Y034850D02*
X037850Y035100D01*
X037850Y035600D01*
X037600Y035850D01*
X036100Y035850D01*
X035850Y035600D01*
X035850Y035100D01*
X036100Y034850D01*
X036100Y035850D02*
X035850Y036100D01*
X035850Y036600D01*
X036100Y036850D01*
X037600Y036850D01*
X037850Y037100D01*
X037850Y037600D01*
X037600Y037850D01*
X036100Y037850D01*
X035850Y037600D01*
X035850Y037100D01*
X036100Y036850D01*
X036100Y037850D02*
X035850Y038100D01*
X035850Y038600D01*
X036100Y038850D01*
X037600Y038850D01*
X037850Y038600D01*
X037850Y038100D01*
X037600Y037850D01*
X037600Y038850D02*
X037850Y039100D01*
X037850Y039600D01*
X037600Y039850D01*
X036100Y039850D01*
X035850Y039600D01*
X035850Y039100D01*
X036100Y038850D01*
X036100Y039850D02*
X035850Y040100D01*
X035850Y040600D01*
X036100Y040850D01*
X037600Y040850D01*
X037850Y040600D01*
X037850Y040100D01*
X037600Y039850D01*
X037600Y040850D02*
X037850Y041100D01*
X037850Y041600D01*
X037600Y041850D01*
X036100Y041850D01*
X035850Y041600D01*
X035850Y041100D01*
X036100Y040850D01*
X036100Y041850D02*
X035850Y042100D01*
X035850Y042600D01*
X036100Y042850D01*
X037600Y042850D01*
X037850Y042600D01*
X037850Y042100D01*
X037600Y041850D01*
X037600Y042850D02*
X037850Y043100D01*
X037850Y043600D01*
X037600Y043850D01*
X036100Y043850D01*
X035850Y043600D01*
X035850Y043100D01*
X036100Y042850D01*
X036100Y043850D02*
X035850Y044100D01*
X035850Y044600D01*
X036100Y044850D01*
X037600Y044850D02*
X037850Y044600D01*
X037850Y044100D01*
X037600Y043850D01*
X038268Y045270D02*
X038211Y045327D01*
X038211Y045554D01*
X038268Y045610D01*
X038438Y045610D01*
X038438Y045270D01*
X038268Y045270D01*
X038580Y045270D02*
X038580Y045610D01*
X038807Y045610D02*
X038580Y045270D01*
X038807Y045270D02*
X038807Y045610D01*
X038948Y045554D02*
X039005Y045610D01*
X039118Y045610D01*
X039175Y045554D01*
X039175Y045327D01*
X039118Y045270D01*
X039005Y045270D01*
X038948Y045327D01*
X038948Y045440D01*
X039062Y045440D01*
X037600Y036850D02*
X037850Y036600D01*
X037850Y036100D01*
X037600Y035850D01*
D12*
X034110Y031980D02*
X033310Y032780D01*
X033310Y043850D01*
X033300Y044190D02*
X033970Y044860D01*
X039040Y044860D01*
X039030Y045850D02*
X037850Y045850D01*
X037350Y045870D02*
X037350Y046170D01*
X036350Y046170D01*
X036350Y045880D01*
X033300Y044190D02*
X019000Y044190D01*
X017700Y044190D02*
X012000Y044190D01*
X010400Y031400D02*
X022750Y031400D01*
X022950Y032700D02*
X033000Y032700D01*
X034110Y031980D02*
X034110Y029200D01*
X036350Y027820D02*
X036350Y027570D01*
X037350Y027570D01*
X037350Y027830D01*
D13*
X029919Y032030D02*
X029834Y031945D01*
X029664Y031945D01*
X029579Y032030D01*
X029366Y032030D02*
X029281Y031945D01*
X029111Y031945D01*
X029026Y032030D01*
X029026Y032370D01*
X029111Y032455D01*
X029281Y032455D01*
X029366Y032370D01*
X029366Y032030D01*
X029579Y032370D02*
X029664Y032455D01*
X029834Y032455D01*
X029919Y032370D01*
X029919Y032030D01*
X028814Y031945D02*
X028814Y032455D01*
X028644Y032285D01*
X028474Y032455D01*
X028474Y031945D01*
X028261Y031945D02*
X028261Y032455D01*
X028091Y032285D01*
X027921Y032455D01*
X027921Y031945D01*
X027709Y032030D02*
X027624Y031945D01*
X027454Y031945D01*
X027369Y032030D01*
X027369Y032455D01*
X027156Y032455D02*
X027156Y031945D01*
X026816Y031945D02*
X026816Y032455D01*
X026604Y032455D02*
X026434Y032455D01*
X026519Y032455D02*
X026519Y031945D01*
X026604Y031945D02*
X026434Y031945D01*
X026236Y032030D02*
X026236Y032370D01*
X026151Y032455D01*
X025980Y032455D01*
X025895Y032370D01*
X025683Y032285D02*
X025513Y032455D01*
X025343Y032285D01*
X025343Y031945D01*
X025343Y032200D02*
X025683Y032200D01*
X025683Y032285D02*
X025683Y031945D01*
X025895Y032030D02*
X025980Y031945D01*
X026151Y031945D01*
X026236Y032030D01*
X026816Y031945D02*
X027156Y032455D01*
X027709Y032455D02*
X027709Y032030D01*
X025131Y032455D02*
X024790Y032455D01*
X024961Y032455D02*
X024961Y031945D01*
X024578Y031945D02*
X024408Y031945D01*
X024493Y031945D02*
X024493Y032455D01*
X024578Y032455D02*
X024408Y032455D01*
X024210Y032370D02*
X024210Y032030D01*
X024125Y031945D01*
X023955Y031945D01*
X023870Y032030D01*
X023870Y032370D01*
X023955Y032455D01*
X024125Y032455D01*
X024210Y032370D01*
X023657Y032455D02*
X023657Y031945D01*
X023317Y031945D02*
X023317Y032455D01*
X023657Y032455D02*
X023317Y031945D01*
X023300Y044595D02*
X023300Y045105D01*
X023088Y044935D02*
X022918Y045105D01*
X022748Y044935D01*
X022748Y044595D01*
X022536Y044595D02*
X022536Y045105D01*
X022748Y044850D02*
X023088Y044850D01*
X023088Y044935D02*
X023088Y044595D01*
X023300Y044595D02*
X023641Y045105D01*
X023641Y044595D01*
X023853Y044595D02*
X023853Y044935D01*
X024023Y045105D01*
X024193Y044935D01*
X024193Y044595D01*
X024193Y044850D02*
X023853Y044850D01*
X022536Y044595D02*
X022195Y044595D01*
X021983Y044680D02*
X021898Y044595D01*
X021728Y044595D01*
X021643Y044680D01*
X021643Y045020D01*
X021728Y045105D01*
X021898Y045105D01*
X021983Y045020D01*
X021983Y044680D01*
X021431Y044680D02*
X021431Y045020D01*
X021346Y045105D01*
X021176Y045105D01*
X021090Y045020D01*
X021090Y044850D02*
X021261Y044850D01*
X021090Y044850D02*
X021090Y044680D01*
X021176Y044595D01*
X021346Y044595D01*
X021431Y044680D01*
X020326Y044595D02*
X020156Y044595D01*
X020241Y044595D02*
X020241Y045105D01*
X020326Y045105D02*
X020156Y045105D01*
X019957Y045105D02*
X019957Y044595D01*
X019617Y044595D02*
X019617Y045105D01*
X019957Y045105D02*
X019617Y044595D01*
X017667Y044595D02*
X017667Y045105D01*
X017412Y045105D01*
X017327Y045020D01*
X017327Y044850D01*
X017412Y044765D01*
X017667Y044765D01*
X017115Y044680D02*
X017030Y044595D01*
X016860Y044595D01*
X016775Y044680D01*
X016775Y045020D01*
X016860Y045105D01*
X017030Y045105D01*
X017115Y045020D01*
X017115Y044680D01*
X016562Y044595D02*
X016562Y045105D01*
X016222Y045105D02*
X016222Y044595D01*
X016392Y044765D01*
X016562Y044595D01*
X016010Y044595D02*
X016010Y045105D01*
X015670Y045105D01*
X015457Y045105D02*
X015457Y044595D01*
X015457Y044765D02*
X015202Y044765D01*
X015117Y044850D01*
X015117Y045020D01*
X015202Y045105D01*
X015457Y045105D01*
X015287Y044765D02*
X015117Y044595D01*
X015670Y044595D02*
X016010Y044595D01*
X016010Y044850D02*
X015840Y044850D01*
X012462Y031055D02*
X012207Y031055D01*
X012122Y030970D01*
X012122Y030800D01*
X012207Y030715D01*
X012462Y030715D01*
X012462Y030545D02*
X012462Y031055D01*
X011910Y031055D02*
X011910Y030545D01*
X011740Y030715D01*
X011570Y030545D01*
X011570Y031055D01*
X011357Y031055D02*
X011187Y030885D01*
X011017Y031055D01*
X011017Y030545D01*
X011357Y030545D02*
X011357Y031055D01*
X033645Y040296D02*
X033645Y040551D01*
X033730Y040636D01*
X034070Y040636D01*
X034155Y040551D01*
X034155Y040296D01*
X033645Y040296D01*
X033645Y040848D02*
X033645Y041019D01*
X033645Y040934D02*
X034155Y040934D01*
X034155Y041019D02*
X034155Y040848D01*
X034070Y041217D02*
X033730Y041217D01*
X033645Y041302D01*
X033645Y041472D01*
X033730Y041557D01*
X033900Y041557D01*
X033900Y041387D01*
X034070Y041557D02*
X034155Y041472D01*
X034155Y041302D01*
X034070Y041217D01*
X034155Y041769D02*
X034155Y041939D01*
X034155Y041854D02*
X033645Y041854D01*
X033645Y041769D02*
X033645Y041939D01*
X033645Y042308D02*
X034155Y042308D01*
X034155Y042138D02*
X034155Y042478D01*
X033985Y042690D02*
X034155Y042860D01*
X033985Y043030D01*
X033645Y043030D01*
X033645Y043243D02*
X033645Y043583D01*
X033645Y043243D02*
X034155Y043243D01*
X033900Y043030D02*
X033900Y042690D01*
X033985Y042690D02*
X033645Y042690D01*
D14*
X035447Y027825D02*
X035447Y027625D01*
X035547Y027525D01*
X035647Y027625D01*
X035647Y027825D01*
X035769Y027825D02*
X035970Y027825D01*
X035970Y027675D01*
X035869Y027725D01*
X035819Y027725D01*
X035769Y027675D01*
X035769Y027575D01*
X035819Y027525D01*
X035920Y027525D01*
X035970Y027575D01*
M02*
