G75*
%MOIN*%
%OFA0B0*%
%FSLAX24Y24*%
%IPPOS*%
%LPD*%
%AMOC8*
5,1,8,0,0,1.08239X$1,22.5*
%
%ADD10C,0.0120*%
%ADD11C,0.0740*%
%ADD12OC8,0.0740*%
%ADD13C,0.0700*%
%ADD14OC8,0.0576*%
%ADD15C,0.0576*%
%ADD16C,0.1400*%
%ADD17C,0.0846*%
%ADD18C,0.0810*%
%ADD19C,0.0792*%
%ADD20C,0.0860*%
%ADD21C,0.0160*%
%ADD22C,0.1660*%
D10*
X009498Y033660D02*
X010189Y033660D01*
X010419Y033890D01*
X010419Y034351D01*
X010189Y034581D01*
X009498Y034581D01*
X009498Y035041D02*
X009498Y033660D01*
X010879Y034581D02*
X011109Y034581D01*
X011570Y034120D01*
X011570Y033660D02*
X011570Y034581D01*
X012030Y034351D02*
X012030Y033660D01*
X012721Y033660D01*
X012951Y033890D01*
X012721Y034120D01*
X012030Y034120D01*
X012030Y034351D02*
X012260Y034581D01*
X012721Y034581D01*
X013411Y034581D02*
X014332Y033660D01*
X013411Y033660D01*
X013411Y034581D02*
X014332Y034581D01*
X015023Y034581D02*
X015023Y033660D01*
X015253Y033660D02*
X014793Y033660D01*
X015713Y033660D02*
X015713Y035041D01*
X015253Y034581D02*
X015023Y034581D01*
X015023Y035041D02*
X015023Y035271D01*
X016174Y034120D02*
X015713Y033660D01*
X016174Y034120D02*
X016634Y033660D01*
X016634Y035041D01*
X018476Y034351D02*
X018476Y033660D01*
X018476Y034351D02*
X018706Y034581D01*
X019166Y034581D01*
X019396Y034351D01*
X019857Y034581D02*
X020547Y034581D01*
X020778Y034351D01*
X020778Y033890D01*
X020547Y033660D01*
X019857Y033660D01*
X019396Y033660D02*
X019396Y035041D01*
X021238Y034351D02*
X021238Y034120D01*
X022159Y034120D01*
X022159Y033890D02*
X022159Y034351D01*
X021929Y034581D01*
X021468Y034581D01*
X021238Y034351D01*
X021468Y033660D02*
X021929Y033660D01*
X022159Y033890D01*
X022619Y035041D02*
X023540Y035041D01*
X023080Y035041D02*
X023080Y033660D01*
X005291Y034296D02*
X005291Y034987D01*
X005061Y035217D01*
X004831Y035217D01*
X004601Y034987D01*
X004601Y034296D01*
X005291Y034296D02*
X003910Y034296D01*
X003910Y034987D01*
X004140Y035217D01*
X004370Y035217D01*
X004601Y034987D01*
X004831Y035677D02*
X004140Y035677D01*
X003910Y035908D01*
X003910Y036598D01*
X003680Y036598D02*
X003450Y036368D01*
X003450Y036138D01*
X003041Y036138D02*
X003041Y035677D01*
X003041Y035908D02*
X001660Y035908D01*
X001660Y036138D02*
X001660Y035677D01*
X001660Y036598D02*
X003041Y036598D01*
X003041Y037289D01*
X002811Y037519D01*
X002351Y037519D01*
X002120Y037289D01*
X002120Y036598D01*
X002120Y035217D02*
X003041Y035217D01*
X002120Y035217D02*
X001660Y034757D01*
X002120Y034296D01*
X003041Y034296D01*
X003680Y036598D02*
X004831Y036598D01*
X004831Y037059D02*
X004601Y037059D01*
X004601Y037289D01*
X004831Y037289D01*
X004831Y037059D01*
X004140Y037059D02*
X003910Y037059D01*
X003910Y037289D01*
X004140Y037289D01*
X004140Y037059D01*
X003041Y037979D02*
X001890Y037979D01*
X001660Y038210D01*
X001660Y038670D01*
X001890Y038900D01*
X003041Y038900D01*
X003041Y039361D02*
X001660Y039361D01*
X001660Y040281D01*
X001890Y042123D02*
X002120Y042123D01*
X002581Y042583D01*
X002811Y042583D01*
X003041Y042353D01*
X002811Y042123D01*
X002581Y042123D01*
X001660Y043044D01*
X002120Y043044D02*
X001660Y042583D01*
X001660Y042353D01*
X001890Y042123D01*
X002811Y044885D02*
X002351Y045346D01*
X001660Y045346D01*
X002351Y045346D02*
X002811Y045806D01*
X003041Y045806D01*
X002581Y046266D02*
X003041Y046727D01*
X002581Y047187D01*
X001660Y047187D01*
X001890Y047648D02*
X001660Y047878D01*
X001660Y048338D01*
X001890Y048568D01*
X002120Y048568D01*
X002351Y048338D01*
X002351Y047878D01*
X002581Y047648D01*
X002811Y047648D01*
X003041Y047878D01*
X003041Y048338D01*
X002811Y048568D01*
X003041Y049029D02*
X001660Y049029D01*
X002351Y049029D02*
X002351Y049950D01*
X003041Y049950D02*
X001660Y049950D01*
X002351Y047187D02*
X002351Y046266D01*
X002581Y046266D02*
X001660Y046266D01*
X002811Y044885D02*
X003041Y044885D01*
D11*
X012350Y047350D03*
X013350Y047350D03*
X014350Y047350D03*
X015350Y047350D03*
X016350Y047350D03*
X017350Y047350D03*
X019350Y047350D03*
X020350Y047350D03*
X021350Y047350D03*
X022350Y047350D03*
X023350Y047350D03*
X024350Y047350D03*
X025350Y047350D03*
X026350Y047350D03*
X028350Y047350D03*
X029350Y047350D03*
X030350Y047350D03*
X031350Y047350D03*
X032350Y047350D03*
X033350Y047350D03*
X034350Y047350D03*
X035350Y047350D03*
X036350Y045350D03*
X037350Y045350D03*
X037350Y028350D03*
X036350Y028350D03*
X033350Y028350D03*
X032350Y028350D03*
X031350Y028350D03*
X030350Y028350D03*
X029350Y028350D03*
X028350Y028350D03*
X027350Y028350D03*
X026350Y028350D03*
X024350Y028350D03*
X023350Y028350D03*
X022350Y028350D03*
X021350Y028350D03*
X020350Y028350D03*
X019350Y028350D03*
X018350Y028350D03*
X017350Y028350D03*
X015750Y028350D03*
X014750Y028350D03*
X013750Y028350D03*
X012750Y028350D03*
X011750Y028350D03*
X010750Y028350D03*
X009750Y028350D03*
X008750Y028350D03*
X031600Y016350D03*
X031600Y015350D03*
X031600Y014350D03*
X034350Y014350D03*
X034350Y015350D03*
X034350Y016350D03*
D12*
X036350Y029350D03*
X036350Y030350D03*
X036350Y031350D03*
X036350Y032350D03*
X036350Y033350D03*
X036350Y034350D03*
X036350Y035350D03*
X036350Y036350D03*
X036350Y037350D03*
X036350Y038350D03*
X036350Y039350D03*
X036350Y040350D03*
X036350Y041350D03*
X036350Y042350D03*
X036350Y043350D03*
X036350Y044350D03*
X037350Y044350D03*
X037350Y043350D03*
X037350Y042350D03*
X037350Y041350D03*
X037350Y040350D03*
X037350Y039350D03*
X037350Y038350D03*
X037350Y037350D03*
X037350Y036350D03*
X037350Y035350D03*
X037350Y034350D03*
X037350Y033350D03*
X037350Y032350D03*
X037350Y031350D03*
X037350Y030350D03*
X037350Y029350D03*
D13*
X027350Y007350D03*
X027350Y006350D03*
X027350Y005350D03*
X027350Y004350D03*
X027350Y003350D03*
X027350Y002350D03*
D14*
X030100Y006350D03*
X030100Y007350D03*
X028850Y014350D03*
X027850Y014350D03*
X028850Y017850D03*
X029850Y017850D03*
X029850Y020850D03*
X028850Y020850D03*
X028850Y022850D03*
X029850Y022850D03*
X031850Y022850D03*
X032850Y022850D03*
X038350Y015850D03*
X039350Y015850D03*
X038850Y013850D03*
X035850Y013850D03*
X013600Y005600D03*
X013600Y002600D03*
X009350Y019850D03*
X008350Y022850D03*
X007350Y022850D03*
X006350Y019850D03*
X004350Y019850D03*
X003350Y019850D03*
X003350Y022850D03*
X004350Y022850D03*
X002850Y026350D03*
X005850Y026350D03*
X008350Y025850D03*
X010350Y022850D03*
X011350Y022850D03*
X011350Y025850D03*
X028350Y049850D03*
X029350Y049850D03*
X022850Y052350D03*
X019850Y052350D03*
X010100Y052350D03*
X009100Y052350D03*
D15*
X009047Y050369D02*
X009047Y049793D01*
X010047Y049793D02*
X010047Y050369D01*
X011047Y050369D02*
X011047Y049793D01*
X012047Y049793D02*
X012047Y050369D01*
X013047Y050369D02*
X013047Y049793D01*
X014047Y049793D02*
X014047Y050369D01*
X015047Y050369D02*
X015047Y049793D01*
X016047Y049793D02*
X016047Y050369D01*
X017047Y050369D02*
X017047Y049793D01*
X018047Y049793D02*
X018047Y050369D01*
X019047Y050369D02*
X019047Y049793D01*
X020047Y049793D02*
X020047Y050369D01*
X021047Y050369D02*
X021047Y049793D01*
X022047Y049793D02*
X022047Y050369D01*
X023047Y050369D02*
X023047Y049793D01*
X024047Y049793D02*
X024047Y050369D01*
X023138Y018850D02*
X022562Y018850D01*
X022562Y017850D02*
X023138Y017850D01*
X023138Y016850D02*
X022562Y016850D01*
X022562Y015850D02*
X023138Y015850D01*
X023138Y014850D02*
X022562Y014850D01*
X022562Y013850D02*
X023138Y013850D01*
X023138Y012850D02*
X022562Y012850D01*
X020138Y012850D02*
X019562Y012850D01*
X019562Y013850D02*
X020138Y013850D01*
X020138Y014850D02*
X019562Y014850D01*
X019562Y015850D02*
X020138Y015850D01*
X020138Y016850D02*
X019562Y016850D01*
X019562Y017850D02*
X020138Y017850D01*
X020138Y018850D02*
X019562Y018850D01*
D16*
X006834Y037834D03*
X006834Y050236D03*
X036362Y050236D03*
X036362Y037834D03*
D17*
X034813Y006330D02*
X033967Y006330D01*
X033967Y004370D02*
X034813Y004370D01*
X038887Y004370D02*
X039733Y004370D01*
X039733Y006330D02*
X038887Y006330D01*
X009233Y006830D02*
X008387Y006830D01*
X008387Y004870D02*
X009233Y004870D01*
X004313Y004870D02*
X003467Y004870D01*
X003467Y006830D02*
X004313Y006830D01*
X004313Y014370D02*
X003467Y014370D01*
X003467Y016330D02*
X004313Y016330D01*
X008387Y016330D02*
X009233Y016330D01*
X009233Y014370D02*
X008387Y014370D01*
D18*
X031300Y010755D02*
X031300Y009945D01*
X032400Y009945D02*
X032400Y010755D01*
D19*
X037350Y021350D03*
X038850Y021350D03*
X038850Y025350D03*
X037350Y025350D03*
D20*
X037170Y011990D02*
X038030Y011990D01*
X038781Y010530D02*
X038781Y009670D01*
X036419Y009670D02*
X036419Y010530D01*
D21*
X036350Y010169D02*
X036419Y010100D01*
X036350Y010169D02*
X036350Y012600D01*
X036850Y013100D01*
X036850Y014850D01*
X036350Y015350D01*
X036350Y017350D01*
X037350Y018350D01*
X037350Y021350D01*
X036600Y022600D02*
X037100Y023100D01*
X039600Y023100D01*
X040100Y023600D01*
X040100Y026600D01*
X039600Y027100D01*
X038100Y027100D01*
X037350Y027850D01*
X037350Y028350D01*
X036350Y028350D02*
X036350Y027350D01*
X037350Y026350D01*
X039350Y026350D01*
X039600Y026100D01*
X039600Y024600D01*
X039100Y024100D01*
X036600Y024100D01*
X036100Y023600D01*
X036100Y018600D01*
X035100Y017600D01*
X035100Y013850D01*
X034600Y013350D01*
X033850Y013350D01*
X033100Y014100D01*
X033100Y015100D01*
X032600Y015600D01*
X032600Y018100D01*
X031850Y018850D01*
X028600Y018850D01*
X027850Y018100D01*
X027850Y014350D01*
X027850Y012850D01*
X026600Y011600D01*
X022100Y011600D01*
X021600Y012100D01*
X021600Y018600D01*
X021850Y018850D01*
X022850Y018850D01*
X022850Y017850D02*
X023350Y017850D01*
X023850Y018350D01*
X023850Y022850D01*
X026350Y025350D01*
X026350Y028350D01*
X027350Y028350D02*
X027350Y027350D01*
X026850Y026850D01*
X026850Y025100D01*
X024350Y022600D01*
X024350Y017350D01*
X023850Y016850D01*
X022850Y016850D01*
X022850Y015850D02*
X024350Y015850D01*
X024850Y016350D01*
X024850Y022350D01*
X027350Y024850D01*
X027350Y026350D01*
X028350Y027350D01*
X028350Y028350D01*
X029350Y028350D02*
X029350Y027600D01*
X027850Y026100D01*
X027850Y024350D01*
X025350Y021850D01*
X025350Y015350D01*
X024850Y014850D01*
X022850Y014850D01*
X022850Y013850D02*
X024850Y013850D01*
X025850Y014850D01*
X025850Y019350D01*
X026600Y020100D01*
X032100Y020100D01*
X033850Y021850D01*
X033850Y024350D01*
X032350Y025850D01*
X032350Y028350D01*
X033350Y028350D02*
X033350Y025850D01*
X034350Y024850D01*
X034350Y021350D01*
X032350Y019350D01*
X027100Y019350D01*
X026350Y018600D01*
X026350Y013850D01*
X025350Y012850D01*
X022850Y012850D01*
X019850Y012850D02*
X019850Y011850D01*
X018850Y010850D01*
X015350Y010850D01*
X009370Y004870D01*
X009350Y004850D01*
X009600Y004850D01*
X013100Y001350D01*
X028350Y001350D01*
X030350Y003350D01*
X030350Y004350D01*
X029350Y005350D01*
X030100Y006100D01*
X030100Y006350D01*
X031100Y007350D01*
X031100Y009100D01*
X031300Y009300D01*
X031300Y010350D01*
X032400Y010350D02*
X034150Y008600D01*
X037100Y008600D01*
X037600Y009100D01*
X037600Y010850D01*
X037850Y011100D01*
X038350Y011100D01*
X038850Y011600D01*
X038850Y012100D01*
X037350Y013600D01*
X037350Y015100D01*
X037100Y015350D01*
X037100Y017100D01*
X038850Y018850D01*
X038850Y021350D01*
X036600Y022600D02*
X036600Y018350D01*
X035850Y017600D01*
X035850Y013850D01*
X035850Y013350D01*
X035350Y012850D01*
X033350Y012850D01*
X032600Y013600D01*
X032600Y014850D01*
X032100Y015350D01*
X031600Y015350D01*
X031600Y014350D02*
X031600Y012600D01*
X031100Y012100D01*
X030600Y012100D01*
X030100Y011600D01*
X030100Y007350D01*
X029350Y007350D01*
X028350Y006350D01*
X027350Y006350D01*
X027350Y005350D02*
X026350Y005350D01*
X025850Y005850D01*
X025850Y009350D01*
X028850Y012350D01*
X028850Y014350D01*
X028850Y017850D01*
X029850Y017850D01*
X029850Y020850D02*
X031850Y020850D01*
X032850Y021850D01*
X032850Y022850D01*
X031850Y022850D02*
X031850Y025350D01*
X031350Y025850D01*
X031350Y028350D01*
X030350Y028350D02*
X030350Y026850D01*
X028850Y025350D01*
X028850Y022850D01*
X029850Y022850D02*
X029850Y021850D01*
X028850Y020850D01*
X033350Y018850D02*
X033350Y015850D01*
X033850Y015350D01*
X034350Y015350D01*
X034350Y016350D02*
X034350Y018850D01*
X035600Y020100D01*
X035600Y024600D01*
X036350Y025350D01*
X037350Y025350D01*
X038850Y025350D01*
X040850Y028350D02*
X040850Y008850D01*
X040850Y004350D01*
X037350Y000850D01*
X012600Y000850D01*
X010850Y002600D01*
X004100Y002600D01*
X001100Y005600D01*
X001100Y025350D01*
X002100Y026350D01*
X002850Y026350D01*
X004100Y026350D02*
X001850Y024100D01*
X001850Y014600D01*
X003600Y012850D01*
X006350Y012850D01*
X007870Y014370D01*
X008810Y014370D01*
X008850Y014330D01*
X008850Y010850D01*
X007350Y009350D01*
X007350Y005850D01*
X008350Y004850D01*
X009350Y004850D01*
X009370Y004870D02*
X008810Y004870D01*
X008810Y006830D02*
X008850Y006870D01*
X009870Y006870D01*
X010850Y007850D01*
X010850Y017350D01*
X009850Y018350D01*
X008350Y018350D01*
X007850Y018850D01*
X007850Y020850D01*
X006350Y022350D01*
X006350Y023350D01*
X007850Y024850D01*
X008850Y024850D01*
X009350Y025350D01*
X009350Y026350D01*
X009850Y026850D01*
X007850Y026850D01*
X005350Y024350D01*
X005350Y021850D01*
X004350Y020850D01*
X004350Y019850D01*
X003350Y019850D02*
X003350Y018350D01*
X004350Y017350D01*
X005350Y017350D01*
X006350Y016350D01*
X008790Y016350D01*
X008810Y016330D01*
X009350Y017350D02*
X010100Y016600D01*
X010100Y014600D01*
X009850Y014350D01*
X008830Y014350D01*
X008810Y014370D01*
X009350Y017350D02*
X007850Y017350D01*
X006350Y018850D01*
X006350Y019850D01*
X005850Y020350D01*
X005850Y023850D01*
X007850Y025850D01*
X008350Y025850D01*
X008350Y024350D02*
X007350Y023350D01*
X007350Y022850D01*
X008350Y022850D02*
X008350Y021850D01*
X009350Y020850D01*
X009350Y019850D01*
X010850Y021350D02*
X010350Y021850D01*
X010350Y022850D01*
X011350Y022850D02*
X011350Y025850D01*
X011350Y026850D02*
X010850Y026850D01*
X010350Y026350D01*
X010350Y025350D01*
X009350Y024350D01*
X008350Y024350D01*
X009850Y026850D02*
X010750Y027750D01*
X010750Y028350D01*
X011750Y028350D02*
X011750Y027250D01*
X011350Y026850D01*
X012750Y026950D02*
X012750Y028350D01*
X012750Y026950D02*
X013350Y026350D01*
X013350Y022350D01*
X012350Y021350D01*
X010850Y021350D01*
X005850Y025850D02*
X005850Y026350D01*
X005850Y032350D01*
X014350Y040850D01*
X014350Y047350D01*
X014350Y047850D01*
X013600Y048600D01*
X011100Y048600D01*
X010100Y049600D01*
X010100Y050134D01*
X010047Y050081D01*
X010100Y050134D02*
X010100Y052350D01*
X010850Y053100D01*
X016100Y053100D01*
X016850Y052350D01*
X019850Y052350D01*
X020850Y051350D02*
X021350Y051850D01*
X021350Y052850D01*
X020600Y053600D01*
X009600Y053600D01*
X009100Y053100D01*
X009100Y052350D01*
X009100Y050134D01*
X009047Y050081D01*
X009047Y038047D01*
X004100Y033100D01*
X004100Y026350D01*
X004850Y025850D02*
X004850Y032350D01*
X012350Y039850D01*
X012350Y047350D01*
X012797Y049100D02*
X012047Y049850D01*
X012047Y050081D01*
X011100Y050134D02*
X011100Y051100D01*
X011350Y051350D01*
X012850Y051350D01*
X013047Y051153D01*
X013047Y051047D01*
X013350Y051350D01*
X020850Y051350D01*
X021047Y050081D02*
X021047Y049850D01*
X021797Y049100D01*
X022350Y049100D01*
X022850Y048600D01*
X023600Y048600D01*
X024350Y047850D01*
X024350Y047350D01*
X025350Y047350D02*
X025350Y047850D01*
X024100Y049100D01*
X022850Y049100D01*
X022047Y049903D01*
X022047Y050081D01*
X023047Y050081D02*
X023100Y050134D01*
X023100Y052100D01*
X022850Y052350D01*
X023350Y053350D02*
X021850Y053350D01*
X021350Y052850D01*
X023350Y053350D02*
X024047Y052653D01*
X024047Y050081D01*
X026119Y050081D01*
X027350Y048850D01*
X028350Y049850D01*
X028350Y050850D01*
X029100Y051600D01*
X037600Y051600D01*
X038600Y050600D01*
X038600Y046600D01*
X037350Y045350D01*
X036350Y045350D01*
X036350Y046850D02*
X033850Y044350D01*
X033600Y044600D01*
X018100Y044600D01*
X017350Y045350D01*
X017350Y047350D01*
X017850Y048100D02*
X018100Y047850D01*
X018100Y046350D01*
X018600Y045850D01*
X026850Y045850D01*
X027350Y046350D01*
X027350Y048850D01*
X026350Y047350D02*
X026350Y046600D01*
X026100Y046350D01*
X018850Y046350D01*
X018600Y046600D01*
X018600Y048100D01*
X018100Y048600D01*
X014350Y048600D01*
X013850Y049100D01*
X012797Y049100D01*
X013047Y050081D02*
X013119Y050081D01*
X013047Y050081D02*
X013047Y051047D01*
X014047Y050081D02*
X014047Y049653D01*
X014600Y049100D01*
X018600Y049100D01*
X019350Y048350D01*
X020350Y048350D01*
X021350Y047350D01*
X022350Y047600D02*
X021350Y048600D01*
X020600Y048600D01*
X020350Y048850D01*
X019850Y048850D01*
X019047Y049653D01*
X019047Y050081D01*
X020047Y050081D02*
X020047Y049653D01*
X020600Y049100D01*
X021350Y049100D01*
X021850Y048600D01*
X022350Y048600D01*
X023350Y047600D01*
X023350Y047350D01*
X022350Y047350D02*
X022350Y047600D01*
X017850Y048100D02*
X015850Y048100D01*
X015350Y047600D01*
X015350Y047350D01*
X016350Y047350D01*
X011100Y050134D02*
X011047Y050081D01*
X015750Y028350D02*
X015750Y015950D01*
X017850Y013850D01*
X019850Y013850D01*
X019850Y014850D02*
X018350Y014850D01*
X016350Y016850D01*
X016350Y026350D01*
X017350Y027350D01*
X017350Y028350D01*
X018350Y028350D02*
X018350Y027350D01*
X016850Y025850D01*
X016850Y017350D01*
X018350Y015850D01*
X019850Y015850D01*
X019850Y016850D02*
X018350Y016850D01*
X017350Y017850D01*
X017350Y025350D01*
X019350Y027350D01*
X019350Y028350D01*
X020350Y028350D02*
X020350Y027350D01*
X018350Y025350D01*
X018350Y018350D01*
X018850Y017850D01*
X019850Y017850D01*
X019850Y018850D02*
X019350Y019350D01*
X019350Y024850D01*
X021350Y026850D01*
X021350Y028350D01*
X023350Y028350D02*
X023350Y025600D01*
X021100Y023350D01*
X021100Y008600D01*
X018100Y005600D01*
X013600Y005600D01*
X013600Y002600D02*
X024100Y002600D01*
X025100Y003600D01*
X027100Y003600D01*
X027350Y003350D01*
X027350Y005350D02*
X029350Y005350D01*
X030100Y006350D02*
X031850Y006350D01*
X032850Y007350D01*
X034850Y007350D01*
X035850Y006350D01*
X038850Y009350D01*
X038850Y010031D01*
X038781Y010100D01*
X039100Y010100D01*
X039600Y010600D01*
X039600Y012100D01*
X037850Y013850D01*
X037850Y015600D01*
X038100Y015850D01*
X038350Y015850D01*
X039350Y015850D02*
X039350Y014350D01*
X038850Y013850D01*
X040850Y008850D02*
X039310Y007310D01*
X039310Y006330D01*
X039310Y004370D02*
X036330Y004370D01*
X035850Y004850D01*
X035850Y006350D01*
X033350Y018850D02*
X034850Y020350D01*
X034850Y033350D01*
X033850Y034350D01*
X033850Y044350D01*
X036350Y046850D02*
X036350Y048350D01*
X034850Y049850D01*
X029350Y049850D01*
X037350Y030350D02*
X038850Y030350D01*
X040850Y028350D01*
X005850Y025850D02*
X004350Y024350D01*
X004350Y022850D01*
X003350Y022850D01*
X002350Y023350D02*
X004850Y025850D01*
X002350Y023350D02*
X002350Y020350D01*
X002850Y019850D01*
X003350Y019850D01*
D22*
X001600Y001350D03*
X040350Y001350D03*
X040100Y053100D03*
X001600Y053100D03*
M02*
