%
M48
M72
T01C0.0315
T02C0.0320
T03C0.0354
T04C0.0394
T05C0.0400
T06C0.0440
T07C0.0450
T08C0.0470
T09C0.0710
T10C0.1000
T11C0.1260
%
T01
X37600Y11990
X38781Y10100
T02
X38850Y13850
X38350Y15850
X39350Y15850
X35850Y13850
X29850Y17850
X28850Y17850
X28850Y20850
X29850Y20850
X29850Y22850
X28850Y22850
X31850Y22850
X32850Y22850
X28850Y14350
X27850Y14350
X22850Y13850
X22850Y12850
X22850Y14850
X22850Y15850
X22850Y16850
X22850Y17850
X22850Y18850
X19850Y18850
X19850Y17850
X19850Y16850
X19850Y15850
X19850Y14850
X19850Y13850
X19850Y12850
X13600Y5600
X13600Y2600
X9350Y19850
X8350Y22850
X7350Y22850
X6350Y19850
X4350Y19850
X3350Y19850
X3350Y22850
X4350Y22850
X2850Y26350
X5850Y26350
X8350Y25850
X10350Y22850
X11350Y22850
X11350Y25850
X28350Y49850
X29350Y49850
X24047Y50081
X23047Y50081
X22047Y50081
X21047Y50081
X20047Y50081
X19047Y50081
X18047Y50081
X17047Y50081
X16047Y50081
X15047Y50081
X14047Y50081
X13047Y50081
X12047Y50081
X11047Y50081
X10047Y50081
X9047Y50081
X9100Y52350
X10100Y52350
X19850Y52350
X22850Y52350
X30100Y7350
X30100Y6350
T03
X27350Y6350
X27350Y5350
X27350Y4350
X27350Y3350
X27350Y2350
X27350Y7350
T04
X36419Y10100
T05
X34350Y14350
X34350Y15350
X34350Y16350
X31600Y16350
X31600Y15350
X31600Y14350
X31350Y28350
X30350Y28350
X29350Y28350
X28350Y28350
X27350Y28350
X26350Y28350
X24350Y28350
X23350Y28350
X22350Y28350
X21350Y28350
X20350Y28350
X19350Y28350
X18350Y28350
X17350Y28350
X15750Y28350
X14750Y28350
X13750Y28350
X12750Y28350
X11750Y28350
X10750Y28350
X9750Y28350
X8750Y28350
X12350Y47350
X13350Y47350
X14350Y47350
X15350Y47350
X16350Y47350
X17350Y47350
X19350Y47350
X20350Y47350
X21350Y47350
X22350Y47350
X23350Y47350
X24350Y47350
X25350Y47350
X26350Y47350
X28350Y47350
X29350Y47350
X30350Y47350
X31350Y47350
X32350Y47350
X33350Y47350
X34350Y47350
X35350Y47350
X36350Y45350
X36350Y44350
X36350Y43350
X36350Y42350
X36350Y41350
X36350Y40350
X36350Y39350
X36350Y38350
X36350Y37350
X36350Y36350
X36350Y35350
X36350Y34350
X36350Y33350
X36350Y32350
X36350Y31350
X36350Y30350
X36350Y29350
X36350Y28350
X37350Y28350
X37350Y29350
X37350Y30350
X37350Y31350
X37350Y32350
X37350Y33350
X37350Y34350
X37350Y35350
X37350Y36350
X37350Y37350
X37350Y38350
X37350Y39350
X37350Y40350
X37350Y41350
X37350Y42350
X37350Y43350
X37350Y44350
X37350Y45350
X33350Y28350
X32350Y28350
T06
X37350Y25350
X38850Y25350
X38850Y21350
X37350Y21350
T07
X32400Y10350
X31300Y10350
T08
X34390Y6330
X34390Y4370
X39310Y4370
X39310Y6330
X8810Y6830
X8810Y4870
X3890Y4870
X3890Y6830
X3890Y14370
X3890Y16330
X8810Y16330
X8810Y14370
T09
X6350Y13580
X6350Y17120
X6350Y7620
X6350Y4080
X36850Y3580
X36850Y7120
T10
X36362Y37834
X36362Y50236
X6834Y50236
X6834Y37834
T11
X1600Y1350
X5350Y28350
X4850Y47350
X1600Y53100
X25350Y45350
X25350Y34350
X34850Y28350
X37350Y47350
X40100Y53100
X40350Y1350
M30
